<svg width="13" height="14" viewBox="0 0 13 14" fill="none" xmlns="http://www.w3.org/2000/svg">
<path fill-rule="evenodd" clip-rule="evenodd" d="M4.90002 10.0504C2.17859 10.0504 0 7.85962 0 5.12512C0 2.39075 2.17859 0.199951 4.90002 0.199951C7.62146 0.199951 9.80005 2.39075 9.80005 5.12512C9.80005 6.16589 9.48438 7.12781 8.94348 7.92017L12.5337 11.5305C12.8888 11.8876 12.8888 12.4414 12.5337 12.7985C12.3561 12.9771 12.1542 13.0673 11.9 13.0673C11.6458 13.0673 11.444 12.9771 11.2664 12.7985L7.67883 9.19092C6.89099 9.73376 5.93469 10.0504 4.90002 10.0504ZM1.80005 5.12524C1.80005 3.38477 3.17151 2.00562 4.90002 2.00562C6.62866 2.00562 8 3.38477 8 5.12524C8 6.86572 6.62866 8.24487 4.90002 8.24487C3.17151 8.24487 1.80005 6.86572 1.80005 5.12524Z" fill="white"/>
</svg>
